<svg height="185" viewBox="0 0 379 185" width="379" xmlns="http://www.w3.org/2000/svg">
  <path d="M72.11,94.37c-2.93,6.3-3.32,13.05-3.97,19.51c-1.18,11.73-2.9,23.4-4.87,34.94 c-1.4,8.16-0.46,16.61-3.52,24.54c-1.7,4.4-4.28,5.99-8.95,5.52c-4.09-0.41-8.31-0.26-12.41,0.24c-4.45,0.54-6.81-1.59-7.59-5.39 c-1.6-7.82-2.74-15.74-4.14-23.6c-2.01-11.27-2.75-22.73-5.26-33.95c-1.44-6.44-1.15-13.17-2.62-19.71 c-1.6-7.1-2.99-14.34-3.43-21.58c-0.69-11.32-4.05-22.18-4.81-33.47c-0.39-5.77-1.42-11.54-2.66-17.2 C6.99,20.12,6.83,16,6.36,11.87c-0.42-3.63,1.41-5.59,4.62-5.79c5.31-0.32,10.68-0.45,15.97,0.03c3.82,0.35,5.27,3.55,5.71,7.17 c2.36,19.59,5.25,39.14,7.4,58.73c1.41,12.87,4.59,25.54,4.69,38.55c0.01,1.66,0.23,3.3,1.16,4.58c1.11,0.23,1.51-0.36,1.51-1.02 c0.09-13,4.2-25.52,4.44-38.55c0.12-6.72,2.11-13.4,3.04-20.13c1.03-7.38,1.86-14.82,2.5-22.22c0.6-6.95,2.68-13.64,2.65-20.71 c-0.02-3.97,2.94-6.58,7.35-6.64c1-0.01,2-0.02,3-0.03c10.64-0.04,12.06,1.47,13.29,12.06c1.95,16.66,4.02,33.31,6.54,49.91 c2.37,15.59,3.65,31.35,5.44,47.04c0.1,0.9-0.25,2.06,1.56,2.75c0.43-2.3,1.22-4.5,1.2-6.7c-0.11-13.85,3.35-27.3,4.68-41 c1.21-12.46,3.08-24.99,4.99-37.44c0.98-6.38,1.38-12.86,2.51-19.26c1-5.7,2.38-7.25,8.03-7.34c4.16-0.06,8.34-0.14,12.49,0.05 c4.81,0.22,6.59,2.37,5.77,7.11c-2.78,16.06-4.59,32.26-7.67,48.28c-2.06,10.74-2.64,21.77-4.66,32.53 c-2.11,11.23-2.92,22.63-5.16,33.87c-1.31,6.54-2.79,13.3-2.73,20.14c0.05,5.86-2.21,11.36-2.82,17.15 c-0.25,2.41-1.24,4.8-1.17,7.33c0.11,4.13-2.1,6.3-6.01,6.43c-5.66,0.18-11.33,0.18-16.98-0.08c-4.16-0.19-6.78-2.35-7.01-6.88 c-0.8-16.15-4.52-31.91-6.54-47.9C74.89,114.05,73.46,104.22,72.11,94.37z" fill="#fff"/>
  <path d="M188.27,25.36c-2.19,3-1.83,6.37-2.43,9.5c-2.26,11.76-7.73,22.61-9.45,34.53 c-0.55,3.83-2.94,7.28-2.79,11.49c0.15,4.25,1.34,8.03,2.66,12.02c2.61,7.91,4.72,16.15,1.04,24.42c-1.41,3.16-1.85,6.3-1.14,9.72 c0.44,2.1,0.58,4.31,0.49,6.45c-0.43,9.93,0.16,19.89-0.86,29.81c-0.22,2.14-0.12,4.34,0.07,6.49c0.65,7.05-0.78,8.78-8.01,9.06 c-3.33,0.13-6.66,0.11-9.99,0.01c-6.34-0.2-8.18-2.11-8.18-8.62c-0.03-26.48-0.01-52.97-0.01-79.45c0-18.49-0.17-36.98,0.08-55.47 c0.12-9.1,2.74-17.34,10.3-23.4c4.51-3.62,9.93-5.36,15.24-5.62c10.38-0.5,20.77-1.23,31.25,1.21 c10.06,2.34,19.39,15.29,19.31,24.95c-0.36,45.8-0.16,91.61-0.16,137.42c0,8.34-0.88,9.19-9.15,9.02 c-3.83-0.08-7.68,0.06-11.47-0.31c-3.89-0.38-6.5-2.32-6.38-6.79c0.43-15.8-0.9-31.63,0.75-47.41c0.36-3.5-1.2-6.51-2.77-9.45 c-1.41-2.64-0.88-5.22-0.87-8.04c0.03-8.27,4.87-15.11,5.8-22.96c0.97-8.19-2.26-15.7-4.5-23.32c-2.53-8.6-5.59-17.05-8.03-25.67 C188.18,31.91,188.49,28.56,188.27,25.36z" fill="#fff"/>
  <path d="M323.66,104.87c0-20.32,0-40.64,0-60.95c0-1.5-0.04-3,0.04-4.5c0.49-9.51,0.5-9.51-9.26-9.52 C301.64,29.9,301.64,29.9,301.66,17c0.01-10.04,1.09-11.12,11.21-11.12c16.99-0.01,33.97-0.03,50.96,0.01 c7.85,0.02,8.84,1.07,8.86,9c0.01,2.83,0.03,5.66-0.01,8.49c-0.09,5.83-0.74,6.46-6.76,6.53c-2.33,0.03-4.66,0-6.99,0.01 c-8.04,0.01-8.23,0.18-8.24,8c-0.01,9.49,0,18.99,0,28.48c0,34.31,0.01,68.61-0.01,102.92c0,8.41-1.14,9.55-9.47,9.57 c-3.5,0.01-7,0.13-10.49-0.09c-4.55-0.28-6.89-2.89-6.89-7.48c-0.03-22.15-0.01-44.29-0.01-66.44 C323.77,104.87,323.72,104.87,323.66,104.87z" fill="#fff"/>
  <path d="M248.65,87.76c-0.38-19.94,0.43-44.41-0.36-68.89c-0.39-11.87,1.08-13.01,13.03-13c2.5,0,5-0.09,7.49,0.04 c4.72,0.24,6.99,2.7,6.98,7.27c-0.05,33.95,0,67.9-0.17,101.85c-0.06,11.64,0.72,23.3-0.57,34.93c-0.38,3.41,1.62,5.04,4.92,4.49 c6.14-1.02,12.3-0.49,18.45-0.53c6.67-0.04,9.14,2.87,8.71,9.69c-0.11,1.82-0.23,3.66-0.1,5.48c0.54,7.49-1.3,9.7-8.87,9.76 c-13.82,0.11-27.64,0.08-41.46,0.02c-6.17-0.03-8.01-1.88-8.02-8.14C248.63,144.58,248.65,118.43,248.65,87.76z" fill="#fff"/>
  <path d="M190.78,72.91c-0.09,1.78-0.08,3.78-0.32,5.76c-0.18,1.43-1.08,2.45-2.64,2.54 c-1.56,0.09-2.67-0.79-2.85-2.24c-0.52-4.29-0.77-8.62,0.31-12.87c0.33-1.29,1.07-2.62,2.67-2.56c1.92,0.07,2.34,1.7,2.51,3.19 C190.69,68.7,190.68,70.7,190.78,72.91z" fill="#fff"/>
</svg>
